<?xml version="1.0" encoding="UTF-8"?>
<svg id="Layer_1" data-name="Layer 1" xmlns="http://www.w3.org/2000/svg" viewBox="0 0 1000 1000">
  <defs>
    <style>
      .cls-1 {
        fill: #fff;
      }
    </style>
  </defs>
  <rect class="cls-1" x="0" y="0" width="1000" height="1000" rx="300" ry="300"/>
  <g>
    <path d="M339.31,893.62c-10.81,0-19.6-8.79-19.6-19.6s8.79-19.6,19.6-19.6h141.1v-141.18l-11.36-1.08c-80.03-7.61-154.18-44.69-208.81-104.43-54.97-60.12-85.25-138.01-85.25-219.33v-15.67c0-10.81,8.79-19.6,19.6-19.6s19.6,8.79,19.6,19.6v15.67c0,157.74,128.21,286.08,285.8,286.08s285.8-128.33,285.8-286.08v-15.67c0-10.81,8.79-19.6,19.6-19.6s19.6,8.79,19.6,19.6v15.65c0,81.34-30.28,159.24-85.26,219.37-54.63,59.74-128.78,96.82-208.8,104.42l-11.36,1.08v141.18h141.1c10.81,0,19.6,8.79,19.6,19.6s-8.79,19.6-19.6,19.6h-321.38Z"/>
    <path d="M714.39,311.25c11.36-34.09,7.45-71.42-10.72-102.43-27.31-47.55-82.22-72.02-135.84-60.51-23.86-26.87-58.13-42.16-94.06-41.94-54.81-.13-103.45,35.16-120.31,87.32-35.21,7.21-65.61,29.25-83.39,60.49-27.52,47.43-21.24,107.22,15.52,147.89-11.36,34.09-7.45,71.42,10.72,102.43,27.31,47.55,82.22,72.02,135.84,60.51,23.84,26.87,58.13,42.16,94.06,41.92,54.84.14,103.49-35.18,120.36-87.38,35.21-7.21,65.61-29.25,83.39-60.49,27.48-47.43,21.2-107.17-15.55-147.84l-.02.03ZM526.24,574.22c-21.95.03-43.21-7.65-60.05-21.71.77-.41,2.1-1.14,2.96-1.67l99.68-57.57c5.1-2.89,8.23-8.32,8.2-14.19v-140.52l42.13,24.32c.45.22.75.66.81,1.16v116.37c-.06,51.75-41.97,93.7-93.72,93.81h0ZM324.7,488.14c-11-18.99-14.95-41.25-11.18-62.85.74.44,2.03,1.24,2.96,1.77l99.68,57.57c5.05,2.96,11.31,2.96,16.38,0l121.68-70.27v48.65c.03.5-.2.99-.59,1.3l-100.75,58.18c-44.88,25.84-102.19,10.48-128.15-34.34h-.02ZM298.47,270.57c10.95-19.02,28.24-33.57,48.82-41.12,0,.86-.05,2.38-.05,3.44v115.15c-.03,5.85,3.1,11.28,8.18,14.17l121.68,70.25-42.13,24.32c-.42.28-.95.33-1.42.13l-100.77-58.22c-44.79-25.94-60.15-83.23-34.34-128.1l.02-.02ZM644.58,351.11l-121.68-70.27,42.13-24.31c.42-.28.95-.33,1.42-.13l100.77,58.18c44.86,25.92,60.24,83.31,34.32,128.18-10.97,18.99-28.24,33.54-48.81,41.11v-118.59c.05-5.85-3.07-11.26-8.13-14.17h-.02ZM686.5,288.01c-.74-.45-2.03-1.24-2.96-1.77l-99.68-57.57c-5.05-2.96-11.31-2.96-16.38,0l-121.68,70.27v-48.65c-.03-.5.2-.99.59-1.3l100.75-58.13c44.88-25.89,102.26-10.48,128.13,34.41,10.93,18.96,14.89,41.16,11.18,62.73h.03ZM422.9,374.72l-42.14-24.32c-.45-.22-.75-.66-.81-1.16v-116.37c.03-51.81,42.06-93.79,93.87-93.76,21.92,0,43.13,7.7,59.97,21.71-.77.41-2.08,1.14-2.96,1.67l-99.68,57.57c-5.1,2.89-8.23,8.31-8.2,14.17l-.06,140.46v.03ZM445.79,325.38l54.2-31.3,54.2,31.29v62.59l-54.2,31.29-54.2-31.29v-62.57Z"/>
  </g>
</svg>