<?xml version="1.0" encoding="UTF-8"?>
<svg id="Layer_1" data-name="Layer 1" xmlns="http://www.w3.org/2000/svg" viewBox="0 0 1000 1000">
  <defs>
    <style>
      .cls-1 {
        fill: #0086ff;
      }
    </style>
  </defs>
  <path class="cls-1" d="M295.88,1000c-13.73,0-24.89-11.17-24.89-24.89s11.17-24.89,24.89-24.89h179.24v-179.34l-14.42-1.37c-101.65-9.66-195.85-56.77-265.24-132.66-69.83-76.36-108.29-175.31-108.29-278.61v-19.91c0-13.73,11.17-24.89,24.89-24.89s24.89,11.17,24.89,24.89v19.91c0,200.38,162.86,363.39,363.05,363.39s363.05-163.02,363.05-363.39v-19.91c0-13.73,11.17-24.89,24.89-24.89s24.89,11.17,24.89,24.89v19.88c0,103.32-38.46,202.28-108.3,278.65-69.39,75.88-163.58,122.99-265.23,132.64l-14.43,1.37v179.34h179.24c13.73,0,24.89,11.17,24.89,24.89s-11.17,24.89-24.89,24.89h-408.24Z"/>
  <path class="cls-1" d="M772.33,260.24c14.43-43.3,9.46-90.73-13.61-130.11-34.69-60.41-104.44-91.48-172.55-76.86C555.86,19.14,512.33-.28,466.69,0c-69.63-.16-131.4,44.67-152.82,110.92-44.73,9.16-83.34,37.16-105.93,76.84-34.95,60.25-26.98,136.19,19.71,187.85-14.43,43.3-9.46,90.73,13.61,130.11,34.69,60.41,104.44,91.48,172.55,76.86,30.28,34.14,73.84,53.55,119.48,53.25,69.67.18,131.46-44.69,152.88-111,44.73-9.16,83.34-37.16,105.93-76.84,34.91-60.25,26.92-136.13-19.75-187.79l-.02.04ZM533.33,594.28c-27.88.04-54.88-9.72-76.28-27.58.97-.52,2.66-1.45,3.76-2.13l126.61-73.12c6.48-3.68,10.45-10.57,10.41-18.02v-178.5l53.51,30.9c.58.28.95.83,1.03,1.47v147.82c-.08,65.73-53.31,119.02-119.04,119.16h0ZM277.32,484.94c-13.97-24.12-19-52.4-14.21-79.84.93.56,2.58,1.57,3.76,2.25l126.61,73.12c6.42,3.76,14.37,3.76,20.8,0l154.57-89.26v61.8c.04.64-.26,1.25-.76,1.65l-127.98,73.9c-57.01,32.83-129.81,13.31-162.78-43.62h-.02ZM244,208.56c13.91-24.16,35.87-42.64,62.02-52.24,0,1.09-.06,3.02-.06,4.37v146.27c-.04,7.43,3.93,14.33,10.39,18l154.57,89.24-53.51,30.9c-.54.36-1.21.42-1.81.16l-128-73.96c-56.89-32.94-76.4-105.73-43.62-162.72l.02-.02ZM683.65,310.87l-154.57-89.26,53.51-30.88c.54-.36,1.21-.42,1.81-.16l128,73.9c56.99,32.93,76.52,105.83,43.6,162.82-13.93,24.12-35.87,42.6-62,52.22v-150.64c.06-7.43-3.89-14.31-10.33-18h-.02ZM736.9,230.72c-.93-.58-2.58-1.57-3.76-2.25l-126.61-73.12c-6.42-3.76-14.37-3.76-20.8,0l-154.57,89.26v-61.8c-.04-.64.26-1.25.76-1.65l127.98-73.84c57.01-32.89,129.89-13.31,162.76,43.71,13.89,24.08,18.92,52.28,14.21,79.68h.04ZM402.07,340.86l-53.53-30.9c-.58-.28-.95-.83-1.03-1.47v-147.82c.04-65.81,53.43-119.14,119.24-119.1,27.84,0,54.78,9.78,76.18,27.58-.97.52-2.64,1.45-3.76,2.13l-126.61,73.12c-6.48,3.68-10.45,10.55-10.41,18l-.08,178.42v.04ZM431.14,278.19l68.85-39.76,68.85,39.74v79.5l-68.85,39.74-68.85-39.74v-79.48Z"/>
</svg>